<svg width="1053" height="248" viewBox="0 0 1053 248" fill="none" xmlns="http://www.w3.org/2000/svg">
<path fill-rule="evenodd" clip-rule="evenodd" d="M38.197 33.4148V0H0V33.4148H38.197ZM38.197 190.944V50.112H0V190.944H38.197ZM190.965 190.946V100.246H190.945C190.945 70.6609 166.831 46.5472 137.226 46.5472C120.285 46.5472 105.25 54.4095 95.4624 66.5879L94.2669 50.1136H57.2654V190.946H95.4624V108.594C95.4624 92.8294 108.35 79.9417 124.115 79.9417C139.88 79.9417 152.768 92.8294 152.768 108.594V190.946H190.965ZM248.256 83.5489V153.965C248.256 164.462 256.847 173.053 267.344 173.053V190.946C262.096 192.851 256.361 194.046 250.404 194.046C228.195 194.046 210.059 176.863 210.059 155.383V16.6991H248.256V50.1139H267.344V83.5286H248.256V83.5489ZM341.35 161.604C324.167 161.604 311.036 148.96 309.84 130.094H408.889L408.937 129.423C409.146 126.545 409.355 123.652 409.355 120.55C409.355 77.3479 380.479 46.5472 340.134 46.5472C299.789 46.5472 270.914 76.3955 270.914 120.55C270.914 164.705 299.566 194.067 341.33 194.067C374.988 194.067 400.297 174.735 407.693 144.421H368.078C364.734 154.917 354.947 161.604 341.35 161.604ZM368.321 101.441H311.988C315.088 88.5537 326.314 79.0096 340.155 79.0096C353.995 79.0096 365.464 88.0674 368.321 101.441ZM615.811 71.3714C625.355 56.5789 642.073 46.5484 661.161 46.5484V82.3543C636.095 82.3543 615.811 98.3423 615.811 118.16V190.967H577.614V50.1351H615.811V71.3714ZM708.903 33.416V0.00125122H670.706V33.416H708.903ZM708.903 190.946V50.1133H670.706V190.946H708.903ZM766.177 83.5481V153.964C766.177 164.461 774.769 173.053 785.265 173.053V190.945C780.017 192.85 774.282 194.046 768.325 194.046C746.116 194.046 727.98 176.862 727.98 155.383V16.6983H766.177V50.1131H785.265V83.5278H766.177V83.5481ZM915.82 190.965V88.7952L915.8 88.8155C915.8 61.1354 893.854 46.5658 856.61 46.5658C819.365 46.5658 796.69 61.8446 796.69 91.9158H834.887C834.887 81.8853 845.384 77.3463 856.853 77.3463C868.322 77.3463 879.062 81.399 879.062 89.0384C879.062 95.9686 871.909 98.8257 854.239 101.926C813.408 109.099 790.023 121.035 790.023 149.91C790.023 178.786 810.328 194.065 840.156 194.065C858.758 194.065 869.497 188.33 877.623 179.029L878.819 190.965H915.82ZM877.623 125.797V142.737C877.623 153.234 862.345 161.116 849.214 161.116C836.083 161.116 826.782 155.382 826.782 147.033C826.782 138.684 834.664 134.632 854.239 131.045C862.588 129.626 870.693 127.945 877.623 125.797ZM1052.13 148.698C1052.13 176.621 1027.31 194.048 990.304 194.048C953.303 194.048 927.771 178.283 927.771 144.402H965.967C965.967 157.776 976.241 163.976 991.034 163.976C1005.83 163.976 1015.39 157.289 1015.39 149.184C1015.39 141.078 1006.56 135.81 990.324 132.953C951.661 126.023 931.6 113.378 931.6 88.7982C931.6 64.2184 955.957 46.5486 989.838 46.5486C1023.72 46.5486 1048.81 61.8273 1048.81 91.8986H1010.61C1010.61 81.8681 1001.06 77.1061 989.129 77.1061C977.194 77.1061 968.359 82.1113 968.359 88.3322C968.359 94.5531 976.707 98.6059 990.324 100.977C1029.47 107.907 1052.15 121.504 1052.15 148.718L1052.13 148.698ZM560.896 118.138C560.916 118.341 560.916 118.544 560.916 118.746L560.896 118.766V118.888V188.251C560.896 220.956 531.696 247.218 488.595 247.218C460.267 247.218 440.246 236.417 428.412 220.247L462.415 203.55C467.683 210.034 474.715 214.289 488.697 214.289C510.602 214.289 522.719 201.402 522.719 185.637V182.455C512.567 187.866 500.997 190.966 488.697 190.966C448.818 190.966 416.497 158.645 416.497 118.766C416.497 78.8876 448.818 46.5671 488.697 46.5671C502.395 46.5671 515.161 50.4374 526.063 57.0636V50.1335H560.896V118.138ZM454.694 118.746C454.694 140.55 469.932 158.24 488.717 158.24C507.501 158.24 522.739 140.55 522.739 118.746C522.739 96.9425 507.501 79.2523 488.717 79.2523C469.932 79.2523 454.694 96.9425 454.694 118.746Z" fill="url(#paint0_linear_9092_24197)"/>
<defs>
<linearGradient id="paint0_linear_9092_24197" x1="174.463" y1="123.609" x2="730.734" y2="123.609" gradientUnits="userSpaceOnUse">
<stop stop-color="#FF8630"/>
<stop offset="0.839167" stop-color="#6162FB"/>
</linearGradient>
</defs>
</svg>
